{
    "asset": {
        "generator": "FBX2glTF",
        "version": "2.0"
    },
    "scene": 0,
    "buffers": [
        {
            "byteLength": 387128,
            "uri": "data:application/octet-stream;base64,"
        }
    ],
    "bufferViews": [
        {
            "buffer": 0,
            "byteLength": 60600,
            "byteOffset": 0,
            "target": 34963
        },
        {
            "buffer": 0,
            "byteLength": 122448,
            "byteOffset": 60600,
            "target": 34962
        },
        {
            "buffer": 0,
            "byteLength": 122448,
            "byteOffset": 183048,
            "target": 34962
        },
        {
            "buffer": 0,
            "byteLength": 81632,
            "byteOffset": 305496,
            "target": 34962
        }
    ],
    "scenes": [
        {
            "name": "Root Scene",
            "nodes": [
                0
            ]
        }
    ],
    "accessors": [
        {
            "componentType": 5123,
            "type": "SCALAR",
            "count": 30300,
            "bufferView": 0,
            "byteOffset": 0
        },
        {
            "componentType": 5126,
            "type": "VEC3",
            "count": 10204,
            "bufferView": 1,
            "byteOffset": 0,
            "min": [
                -45.7422409057617,
                -45.7422409057617,
                -1.14276206493378
            ],
            "max": [
                45.7422409057617,
                45.7422409057617,
                1.14276194572449
            ]
        },
        {
            "componentType": 5126,
            "type": "VEC3",
            "count": 10204,
            "bufferView": 2,
            "byteOffset": 0
        },
        {
            "componentType": 5126,
            "type": "VEC2",
            "count": 10204,
            "bufferView": 3,
            "byteOffset": 0
        }
    ],
    "samplers": [
        {}
    ],
    "materials": [
        {
            "name": "DefaultMaterial",
            "alphaMode": "BLEND",
            "pbrMetallicRoughness": {
                "baseColorFactor": [
                    0.3,
                    0.7,
                    1,
                    0.8 
                ],
                "metallicFactor": 0.600000023841858,
                "roughnessFactor": 1.0
            }
        }
    ],
    "meshes": [
        {
            "name": "Torus001",
            "primitives": [
                {
                    "material": 0,
                    "mode": 4,
                    "attributes": {
                        "NORMAL": 2,
                        "POSITION": 1,
                        "TEXCOORD_0": 3
                    },
                    "indices": 0
                }
            ]
        }
    ],
    "nodes": [
        {
            "name": "RootNode",
            "translation": [
                0.0,
                0.0,
                0.0
            ],
            "rotation": [
                0.0,
                0.0,
                0.0,
                1.0
            ],
            "scale": [
                1.0,
                1.0,
                1.0
            ],
            "faceCamera": false,
            "children": [
                1
            ]
        },
        {
            "name": "Torus001",
            "translation": [
                -0.000126930230180733,
                0.0,
                0.00328540988266468
            ],
            "rotation": [
                -0.70710676908493,
                -0.0,
                0.0,
                0.70710676908493
            ],
            "scale": [
                0.0253999996930361,
                0.0253999996930361,
                0.0253999996930361
            ],
            "faceCamera": false,
            "mesh": 0
        }
    ]
}